<svg version="1" xmlns="http://www.w3.org/2000/svg" width="993.333" height="993.333" viewBox="0 0 745.000000 745.000000"><path d="M223 14.4c-6.4 2.3-10.1 4.1-17.9 9-5 3.2-5.9 4.6-2.9 4.7 1.3 0 3.2.2 4.3.4 1.1.2 4.1.5 6.7.7 2.7.2 4.8.5 4.8.8 0 .3-2.3 2-5.1 3.9-5.7 3.9-14.9 13.1-18.7 18.8-1.4 2.1-2.9 4-3.3 4.3-.4.3-2.6 3.4-4.8 7-11.1 17.4-14.4 30.1-14.4 55-.1 16.2.8 25.6 3.7 42 .2 1.4.9 4.4 1.4 6.7.5 2.3.7 4.4.5 4.7-1 1-6.2-2.4-9.5-6.3-1.9-2.2-5.1-6.9-7.2-10.5-2.1-3.6-4-6.6-4.1-6.6-.2 0-.2.8 0 1.7.2 1 .6 9 .9 17.8.5 15.1 1 20.6 2.1 26.5.3 1.4.7 4.3 1.1 6.5 1.6 11.6 8.3 32.4 13.9 43.6 10.3 20.3 28.2 40.6 41.5 47 4.1 2 10.9 4.7 15 5.9 9.4 2.8 14.3 5.2 16.8 8.5 2.4 3 5.5 11.6 5.5 15.2 0 2 3.4-1 18.8-16.6 10.3-10.5 21.4-22.3 24.6-26.3 3.2-4 6-7.5 6.3-7.8.4-.3 1.7-2.2 3-4.4 2.6-4.4 3.4-3.8 4.4 3.4.4 2.5.8 5.4 1 6.5.3 1.1.5 2.8.5 3.8.1 1 .5 1.6 1 1.3.7-.5 18.2-35.2 21.1-42.1 4.1-9.3 10.7-32.8 12.4-44 2.8-17.6 3.7-31.9 3.7-54-.2-44.5-4.7-69.6-14-78.5-3.9-3.8-12.8-13.9-21.1-24-9.8-11.9-13.9-15.2-10.6-8.4 2.9 5.6 6.8 26.4 5 26.4-.3 0-4.3-3.8-8.8-8.5-4.6-4.6-14.1-12.7-21.2-17.9-18.8-13.9-27.1-17.6-40.9-18.2-7.5-.3-10.1 0-15.5 2zM259.3 46c15.2 7.7 21.3 12.4 42.2 32.4 7.5 7.2 10.1 9.1 10.3 7.8.6-3 2.1-3.6 2.6-1.1.3 1.3 1.2 5.3 2 8.9.8 3.6 1.9 9 2.5 12 .6 3 1.4 6.6 1.6 8 3.7 17.6 4.1 45.1 1 63-.2 1.4-.7 4.3-1 6.5-.4 3.3-5.3 27.6-7 35-2.2 9.8-3.8 15.6-4.5 16-.4.2-1.5-2.5-2.5-6.1-1-3.6-2.1-6.2-2.4-5.7-.4.4-1.3 3-2 5.8-1.5 6.1-9 22.1-11.8 25.3-1.2 1.2-3.1 3.7-4.4 5.5-1.2 1.7-4 4.7-6.1 6.6l-3.8 3.3.6-4.3c1.4-11.8 2.1-14.3 5.9-22.5 3.6-8 3.4-7.7 10.1-14.9 10-11 14.2-19.2 15.1-29.7.3-3.7.2-6.8-.2-6.8s-6.8 1.4-14.2 3.1c-7.4 1.7-13.6 2.9-13.8 2.7-.2-.2 1-2.4 2.7-4.8 6.1-9.1 14.5-27.6 16.4-36.5 5.5-24.4 5.3-44.7-.5-59.4-2.6-6.5-6.4-13.4-9.9-18.1-3.5-4.6-14-15-15.2-15-1.4 0-1.3.4 1.8 5.7 1.6 2.6 5.9 12 9.6 20.7 6.6 15.4 6.9 16.4 7.3 25.7.3 6 .1 10.5-.6 11.6-1 1.7-1.1 1.7-1.7-.5-.3-1.2-1-2.2-1.4-2.2-.4 0-1.4-1.5-2.1-3.3-.7-1.7-2.1-4.6-3.2-6.2l-1.9-3 .8 8c.8 8.8.7 27.8-.1 32.5-.3 1.7-.7 4.5-1 6.2-1.4 7.9-11.3 23.1-21.4 32.6l-5.6 5.4 3.8-.7c2.1-.3 4.6-.9 5.5-1.2 1.3-.6-1.1 3.1-9.2 13.6-.9 1.2.3 1.3 7.8.7 5-.4 9.2-.9 9.5-1.1.3-.1 3.4-.6 6.9-1 6.6-.7 7.9.2 3.7 2.5-1.4.7-2.5 1.6-2.5 1.9 0 .3-1.6 2.4-3.6 4.6-9.1 10.1-17.1 25.3-18.8 35.5-.8 5-1.9 15.1-2 17.7 0 2.7 0 2.7-6.9.9-13.3-3.5-33.7-13.1-40.5-19.1-10.5-9.2-19.4-29.8-23.6-55-.3-1.7-1-5.4-1.6-8.4-.5-2.9-1-5.8-1-6.2 0-.9 4.1-.5 10.5.8 1.7.3 4.5.7 6.3.8 2.6.2 3-.1 2.1-1.1-1.5-1.8-5.7-19.2-6.6-27.4-.4-3.6-.8-14.8-.8-25 0-19.8.7-23.7 7.1-39.3 7.5-18 23.6-37 37.6-44.2 4.7-2.4 5.2-3.7 2.7-6.6-1-1.2-1.9-2.3-1.9-2.5 0-.5 11.1 4.5 21.3 9.6zM444.5 19.7c-14.8 2.5-26.4 7.1-39.7 16-10.2 6.9-29.6 26.3-26.2 26.3.5 0 2.9-1.4 5.4-3 2.5-1.6 4.8-3 5.2-3 .4 0-.5 1.9-2.1 4.2-7.6 11.4-17.3 34.2-20.6 48.4-.2 1-2.3 9.3-4.5 18.4-4.4 18.3-5.4 24-3.9 24 .5 0 .9-.4.9-.8 0-.5.8-1.7 1.8-2.8.9-1 2.8-3.6 4.2-5.6 1.3-2 2.6-3.6 2.7-3.4.1.1-1.1 4.9-2.7 10.7-8.3 28.5-9.4 33.9-9.7 47.4-.2 9 .2 15 1.2 19.5 2 8.6 7.3 24.5 9.8 29.5l2 4-2.4-2c-1.3-1.1-3.9-3.5-5.9-5.2-1.9-1.8-3.7-2.8-3.9-2.2-.5 1.6 6.3 14.8 11.9 23.1 12.9 19.2 27.5 29.6 54.5 39.1 17.7 6.2 50.2 15.9 58.2 17.2l3.1.6-.8-3.8c-2.1-9-.4-11.5 16.5-25 8.3-6.6 16.8-15.3 24.6-24.9 10.4-12.8 26.8-43.4 32.8-60.9 3.4-10 3.5-10.5 2.1-10.5-.5 0-1 .4-1 1 0 1.1-13.2 19.2-13.7 18.7-.1-.2.6-3 1.6-6.3 2.4-7.3 7.1-24.7 7.7-28.3.2-1.4 1.1-5.6 1.9-9.3 2.5-11.1 3-22.6 2.6-56.6-.1-6.7-.4-9.3-1.3-9-.6.2-1.2 1.7-1.3 3.4-.3 4.1-7.1 27.4-10.1 34.8-4.8 11.2-6 11-6.8-1.4-1.1-14.9-1.7-22.4-2.2-25-.2-1.4-.7-4.1-1-6-1.1-7.6-5.7-24.6-8.2-30.4-6.7-15.8-16.5-28.3-34.6-43.9-4.4-3.8-4.2-5.7.7-5.8 1.8 0 4.1-.4 5.2-.8 1.8-.7 1.5-1-2.1-2.9-4.2-2.1-15.1-5.8-19.4-6.6-1.4-.2-4.1-.7-6-1-6.7-1.3-18.6-1.2-26.5.1zm16.9 25.2c2 .1 2 .1 0 1.5-1.8 1.4-1.4 1.7 5.9 5 4.3 2 8.1 3.6 8.4 3.6.3 0 3.6 2 7.3 4.5 8.2 5.5 15.5 12.6 20.2 19.7 6.5 9.8 13.5 30.4 15.4 45.3.4 3.3.8 6.9 1 8 .5 3.8 1.4 14 1.8 20.6.6 9 1.7 10.9 6.5 10.9 5.4 0 6.4 1.6 5.8 9.2-.8 10.1-5.2 19.8-14.7 32.4-2.8 3.6-5 6.7-5 6.9 0 .2 1.6.7 3.5 1.1 1.9.3 3.5 1 3.5 1.5s-1.7 2.8-3.7 5l-3.8 4.1 6.3-.7c7.4-.8 7.4-.9 2.9 9.5-5.1 11.8-10.8 19-22.2 28.5-3.3 2.8-6.2 5.2-6.5 5.5-1.7 1.9-24.5 18-25.4 18-1 0-3.6-10.4-3.6-14 0-.7 1.5-1 3.8-.8 2 .2 3.7.9 3.7 1.6 0 1.2.9 1.6 2.3 1 .9-.4 16.5-26.7 23-38.8 7.1-13.2 12.3-25.9 13.7-33.2.4-1.7-.1-1.8-4.7-1.3-2.8.3-5.6.9-6.1 1.2-1.1.6-.1-2.9 1.9-7.1.8-1.6 1.4-3.3 1.4-3.8s.9-3 2.1-5.5c1.1-2.5 1.8-4.7 1.5-5-.3-.3-1.8-.2-3.3.2-1.5.5-3 .9-3.3.9-.3.1-1.1.5-1.7.9-1.7 1.1-1.6-.4.1-2.9 4.2-5.9 6.6-29.2 4.4-41.5-1.1-5.9-5.2-14.6-10.9-23-3.6-5.3-17.2-18.9-18.9-18.9-.5 0 1.8 3.9 5.1 8.7 6.3 9.1 7.5 11.5 11.5 22.3 3.7 9.9 5.1 17.6 4.9 27.7-.3 11-3 19.8-8.7 28.3-4.2 6.3-13.9 16.9-17.3 18.9-4.6 2.8 3.2.3 18.9-5.8 2.7-1.1 2.8-1 1.5.6-2.5 3.3-12.4 14.6-15.3 17.7-1.6 1.6-2.4 3.2-1.9 3.3.6.2 5.9-1.2 11.7-3 5.8-1.9 10.7-3.1 10.7-2.6.4 2.5.2 3.9-.9 9.5-1.9 9.3-8.2 16.7-17.5 20.4-1.2.4-6.1 3.5-10.8 6.7l-8.5 5.9-1.9-4.5c-4.5-11.5-5.8-14-6.6-13.5-.5.2-1.8 3.7-3 7.7-2.5 8.1-3.3 25.3-1.7 35.2 1.3 8.4 1.1 8.7-4.2 6.2-18.7-8.5-44.9-22.6-49.3-26.5-2.1-1.9-.7-3.2 3.6-3.2 3.2 0 3.4-.9.7-4.3-1.1-1.4-2-2.8-2-3.1 0-.3-1.3-2.7-2.9-5.3-7.1-12.2-12-29.1-12.3-42.5-.2-10.6 1.5-19.9 6.7-37.8.9-3 1.7-6 1.9-6.5.1-.6 2.1-6.9 4.4-14.1 2.3-7.2 4.2-13.4 4.2-13.7 0-.4-1.7-.4-3.7-.1-4.3.7-4.5.7-5.5.5-.4 0 .2-3.1 1.3-6.9 1.1-3.7 2.2-7.8 2.5-9.2 1.4-6.4 9.8-29.9 13-36.3 7.4-14.6 12.2-19.8 22.9-25.2 11.5-5.7 16.1-6.4 35.9-5.6zM614.6 153.6c-8.9 6.1-18.4 18.2-27 34.4-9.7 18.5-17 39.1-19.7 55.7-.7 4.1-1.5 7.5-1.9 7.8-1.8 1.1-3.5-15.7-4-41.5 0-2.4-.1-2.4-2.1.9-2.5 4.1-9.1 20.7-11.2 28.1-1.4 4.9-2.2 8.7-4.2 19.5-2.5 13.8-2.6 48.3-.1 62.5 2.2 12.5 4.2 20.4 7.8 32 3.3 10.1 10 28.5 12.3 33.7.8 1.7 1.5 3.3 1.5 3.6 0 .3 3.9 10 8.7 21.4 8.1 19.5 12.3 32.1 12.3 36.8-.1 1.6-.9 1.1-4.1-2.5-2.2-2.5-4.7-5.7-5.5-7.3-.8-1.5-1.9-2.7-2.5-2.7-.6 0-.9.3-.7.7.2.5 2.7 5.5 5.7 11.3 5.5 10.7 5.7 11.4 6.5 21.4.3 3.2.7 6 .9 6.3.3.2 2.5-.1 5-.8 5.6-1.4 17.9-.7 26.7 1.6 6.1 1.5 19 2 26.7 1 12.8-1.7 32.1-12.3 43.9-24 13.4-13.3 24.1-29.2 34.4-50.8 8.6-18.1 18.3-48.2 20.5-63.2l.8-5-8.2 10c-11.5 14-10.8 13.7-8.7 2.9.2-1.2.7-4.5 1.1-7.5.3-3 .8-6.5 1-7.9 1.5-9.4 2-40.2 1.1-56-.6-9.3-3.3-29.6-5.1-39l-2-10c-1-5.6-4.5-21.7-5.3-24.5-.9-3.1-1.8-2.5-2.6 1.6-.3 1.3-1.1 4.4-1.9 6.9-1.2 3.8-1.5 4.2-2.2 2.5-.5-1.1-2-4.5-3.3-7.5-1.4-3-2.6-5.7-2.7-6 0-.3-1.5-3.4-3.2-7-3-6.1-5.4-10.3-13-23.1-1.8-3-3.3-6.1-3.3-7 0-2.9 3.1-4.4 9.4-4.6 3.4-.1 6.7-.2 7.4-.3 3.9-.1-1.6-4.6-7-5.6-8.8-1.7-27.7-.1-37.6 3.2-11.1 3.7-29.3 13.9-37.8 21.3-.7.5-2 1.1-3 1.3-2.6.4-2.9-3.7-1-12.6 2.1-9.4 2.8-14.6 1.8-14.6-.4 0-2.5 1.2-4.6 2.6zm58.5 38.4c5.4 5.9 11.1 17.6 16.7 34.3 5.8 17 8.1 21.4 11.4 21.9 1.8.2 2.5 1.3 3.4 4.9 1.9 7.6 3.5 28.1 3.6 46.4 0 15.6-.4 20.4-4.8 47.5-2 12.5-2.2 20.4-.4 22.5.7.8 2.5 1.5 4 1.5 5.3 0 4.5 2.9-5.3 19.4-15.1 25.3-25.3 36.5-40.3 43.9-6.2 3.1-14.4 6.1-15 5.4-.2-.1 2-2.7 4.7-5.6 2.8-3 6.3-7.9 7.8-11 3.8-7.5 10.7-23.9 11.5-27.5.4-1.5.9-2.6 1.1-2.4.5.5 1.3 4.5 1.4 7.1.2 3.6 2.2.7 6.1-8.8 9.2-22.4 15.4-43.8 17.5-60.5.6-5.1.7-34.6.1-43-.7-8.8-3.2-24.9-4-25.8-.3-.2-1.8.6-3.5 1.7-8 5.4-9 6.1-9.4 6.1-.2 0-.5-2-.5-4.5-.2-5.1-3.8-15.2-7.9-22.2-7-12.1-15-22.3-17.5-22.3-.5 0-.8.3-.6.7 5.2 10.5 11.9 25.1 13.6 29.3 4 10 4.3 15 2.8 42-.7 12.1-.7 12.4 1 10 1-1.4 2.1-2.7 2.4-3 .4-.3 3.7-4.9 7.5-10.2 3.7-5.4 7.1-9.6 7.5-9.3.3.2.5 1.9.4 3.7-.1 1.8-.5 10.6-.8 19.5-.3 8.9-.8 16.8-1.1 17.5-.2.7-.7 3.1-.9 5.3-.3 2.2-.8 5.3-1 7-.9 5.6-5.4 20-8.6 27-1.7 3.8-4.1 9.1-5.2 11.7-1.2 2.7-2.5 4.8-2.8 4.8-.6 0-3-8.4-4.5-15.7-.3-1.2-.9-3.2-1.4-4.5-.9-2.2-1-2.2-1.1.7-.5 9.4-1.4 15-4.1 24.9-5.8 21.7-6.5 23.2-13.8 30.5-12.6 12.4-20.2 18.1-29.2 21.6-3.4 1.4-6.3 2.4-6.4 2.2-.2-.1-.6-4.2-.9-9-.8-10.2-2.2-17.8-4.7-25.6-.7-2-6.3-14.9-12.6-28.6-15.6-34-20.1-45.5-21.7-55.8-2.8-17.7-2.8-36.6-.1-48.7.2-.8.4-1.8.4-2.3.3-2.6 2.3 1 7.1 12.8 3 7.4 5.8 13.5 6.3 13.5.4 0 .7-1.2.8-2.8.1-4.4 1.1-13.4 2.3-21.7.2-1.1.7-4.5 1.1-7.5 1.2-9.5 4.3-19.9 8-26.8 3.7-7.2 13.3-20.4 15.1-20.9 1.4-.5 2.4 4.2 2.4 10.8 0 2.7.3 4.9.8 4.9.4 0 3.2-4.1 6.2-9.2 7.9-13.1 15.3-20.2 27.2-26.1 17.2-8.7 21.4-8.9 27.9-1.7zM84.2 197.6c.3 2.6.2 2.7-6.3 2.9-4.5.2-9.7 1.4-17 4-15.3 5.4-14.3 5.2-13.5 2.4.4-1.3 1-3.9 1.3-5.8l.6-3.5-6.3 4.5c-10.2 7.1-19.2 16.6-22.8 23.9-3 6.1-6.1 17.7-6.2 22.7 0 3.5-1.5 2.8-3.6-1.7-1-2.2-2.2-4-2.6-4-.8 0-1.8 3.7-3.9 13.5-1.8 8.6-1.6 40.4.5 53.3 4 25.7 11 45.9 21.3 61 2.4 3.5 4.3 6.5 4.3 6.8 0 .2-2.1-1.3-4.7-3.3-7.2-5.6-16.3-16.1-20.7-23.6-2.1-3.7-4.1-6.6-4.3-6.3-.2.2 0 2.1.6 4.2.6 2.2 1.3 5.7 1.7 7.9.3 2.2.7 4.7.9 5.5.1.8-.4 2.3-1.3 3.3-1.4 1.5-1.3 2.6.2 10.4C5.6 392 13.6 407.4 24.9 419c6.3 6.4 14.2 12.9 18.4 15 4.5 2.2 1.7 2.3-6.4.1-4.1-1.1-7.5-1.8-7.7-1.7-.4.5 12.7 8.6 13.9 8.6.5 0 .9.4.9 1 0 .5.6 1 1.3 1 .6 0 2.3.9 3.6 1.9l2.5 1.9-3.5-.3c-1.9-.2-7-.6-11.3-1-4.4-.3-8.4-.9-8.9-1.2-2.2-1.3.3 6.9 3.7 12.2 8.7 13.5 19 21.6 42.1 33 11.2 5.5 31.8 12.9 39 14 2.2.4 9 .9 15 1.2l11 .5v-12.9c0-12.8 0-13 3.5-19.8 5.6-11.1 13.6-17.9 23.5-20 9.9-2.1 12.8-.7 5.6 2.6-7.1 3.4-6.9 4 1.6 4.1 3.7.1 7.4-2.1 11.9-6.9 5.6-5.9 9.3-15.9 11.3-30.3 1.1-8.3 1.1-52.8 0-60-1.2-7.7-1.8-11.2-2.3-13.5-.8-3.7-4.8-15-5.7-16-.5-.5-.9-1.6-.9-2.6 0-.9-1.1-3.7-2.5-6.3-1.4-2.6-2.5-4.9-2.5-5.2 0-.9 11 12.2 13 15.6.7 1.2 1.2 1.2 2.2.2.8-.8 1.2-4.2 1.2-10-.1-16.4-9.4-38.1-26.3-61.2-7.2-9.8-6.2-8.7-17.1-19.7-14.2-14.3-31.5-27.7-48-37.3-4.1-2.4-8.6-5-10-5.9-1.4-.8-2.7-1.6-3-1.7-.3 0-2.2-.8-4.2-1.7-5.1-2.3-6-2.1-5.6.9zm10.1 41.8c9.7 2.2 23.5 9.7 36.4 19.7 4.5 3.5 9.3 7.3 10.8 8.4 3.5 2.5 14.7 17.5 17.5 23.4 1.2 2.5 2.6 5.4 3.1 6.3 1.2 2.4 2.1 12.1 1.2 13.3-.5.5-1.7 1.5-2.8 2.1-2.7 1.5-2.5 4.9.9 15.4 8.3 25.6 9.5 32.1 9.1 49.5-.3 13.5-1 18.2-4.6 32.6-2.2 8.5-2.3 8.7-6.1 10-3.3 1.1-4 1-5.7-.5-3.2-2.9-2.1-12.1 2.8-24.3 1.8-4.7 2.8-9.6 3.2-16.3.4-6.9-.8-6.6-4.6 1-1.6 3.3-3.2 6-3.5 6-.3 0-.6-3.9-.6-8.8-.2-11.1-1.3-28.9-2-32.2-2.5-11-10.8-30.6-16.8-39.3-1.4-2.1-2.6-4.1-2.6-4.4 0-.3-1.1-2.1-2.5-3.9-1.4-1.8-2.5-3.5-2.5-3.7 0-.2 2.6.2 5.8 1 15.4 3.7 15.1 3.7 14.4 1-2.4-9.6-21.5-27.9-36.7-35.2-18-8.7-32-11.6-16.8-3.6 17.2 9.2 25.5 14.6 32 20.9 3.5 3.4 6.1 6.7 5.8 7.1-.3.5-5.5.8-11.5.6l-11-.3 2.3 3.2c3.8 5 15.3 25.5 18.7 33.1 1.7 3.8 3.5 7.9 4 9 8.6 18.9 9.4 46.5 2.1 68.1l-1.8 5.4 2.8-.5c1.5-.3 3.9-.9 5.3-1.5 1.7-.6 2.6-.6 2.6 0s-.4 1-1 1c-2 0-6.5 12.8-7.6 21.6-.7 5.9-2 8.4-7.7 15.1-6.2 7.2-13.8 23.7-12.1 26.4 1.1 1.8-2 1.9-8.3.3-10.2-2.5-17.6-5.9-27.6-12.6-9.1-6.1-9.8-7.7-3.2-7.2 4.2.4 4.4-.8 1.5-6.6-2.3-4.4-2.5-4.2 5.7-4.4 2.8 0 5.4-.4 5.8-.8.3-.3-1.9-1.6-5.1-2.7-5.8-2.2-11.6-4.7-19.3-8.4-5.1-2.4-18.1-14.6-18.1-17 0-1.3 1.4-1.7 7.3-1.9l7.2-.3-2.6-2.5c-1.4-1.4-4.1-3.7-6-5.2-9.5-7.6-10-8.1-9.1-9 .6-.6 7.9-1.1 16.4-1.3 8.4-.1 16.6-.6 18.1-1l2.8-.7-3.1-2c-1.7-1-3.7-2.3-4.3-2.8-.7-.5-4.6-3.6-8.8-6.9-4.2-3.2-10.5-9.5-14.1-14-9.6-12.1-14-21.8-16.4-36.9-.9-5.3-1.4-46.2-.6-46.2.4 0 1.8.7 3 1.6 2.5 1.7 2.6 1.4 2.2-4.6-.6-8.3-.6-10.7.2-14.5 1.1-4.7 4.8-12.5 6-12.5.7 0 1.3 7 .9 10.5 0 .5.5.2 1.2-.9 6.9-10.5 12.8-15.7 19.1-16.4 2.2-.2 4.2-.6 4.4-.7.6-.5 21.6.3 24.5.9z"/><path d="M319.5 319.1c-13.1 2-25.4 4.4-26.3 5.3-.3.3.9.9 2.6 1.2 1.8.4 3.2 1 3.2 1.4 0 .4-2.9 1.5-6.5 2.5-14.1 3.8-26.2 11.4-39.5 24.7-9.8 9.9-12.3 13-16.5 21-6.5 12.3-10.1 24.6-17.1 58.8-2.8 13.7-7.8 29-9.5 29-.5 0-.9-2.4-.9-5.3 0-6.6-1-7.8-2.6-3.2-3.9 11.3-11.6 19.8-34.4 37.5-27.5 21.4-35.7 30.2-44.3 47.5-9.3 18.7-12 34.3-9 52.9 3.2 20.5 15 43.7 28.9 57.3 5.3 5.1 7.9 6.7 14.7 9.3 13.1 4.9 15.8 6.2 23.5 11.4 4 2.6 7.5 4.7 7.7 4.5.2-.2-1.6-3.6-4-7.4-2.3-3.9-4.1-7.1-4-7.3.2-.2 1.2.1 2.3.7 1.1.6 7.6 2.8 14.4 5 9 2.9 14.2 3.9 18.8 4 4.4 0 6-.3 5-.9-.8-.5-2.1-1-2.8-1-1.9 0-16.2-7.1-16.2-8 0-.5-.3-1.6-.6-2.4-.5-1.3 2-.7 10.7 2.4 11.9 4.2 31.9 13.6 31.9 15 0 .5.8 1.1 1.8 1.4.9.4 4 2.7 6.7 5.2 2.8 2.6 6.8 6.3 9 8.3 6.9 6.3 17.6 14.6 27 20.8 26.3 17.4 41.1 22.2 63.8 21 14.1-.8 21.2-2.1 30.8-5.8 7-2.7 13-7.1 11.6-8.5-.3-.3-3.7.5-7.6 1.9-4.5 1.5-9.7 2.5-14.3 2.6-4 .1-8.6.3-10.1.5-4.1.5-2.4-.6 7.8-4.8 14.4-6.1 29.2-13.8 40.5-21.1 5.8-3.7 10.7-7.1 11-7.4 2.7-3.5 46.2-27.8 57.6-32.1 2.3-.9 2.5-.8 1.8.7-4.4 10.1-6.7 19.5-7.1 29.3l-.5 10.5 3.1-4.8c6.5-10 22.6-21.1 37.7-26.1 6.5-2.1 6.3-2.1 33.4-7.2 9.7-1.8 15.3-3.4 20.3-5.9 12.1-6.1 15.6-9.6 20-20.5 2.4-5.9 3.4-27 1.8-36.5-.7-3.7-1-6.9-.7-7.2.2-.2 1.8.3 3.5 1.2 3.1 1.5 3.1 1.5 3.1-1 0-1.4-.6-3.8-1.4-5.3-2-3.9-2.9-7.2-1.9-7.2.4 0 2.8 1.8 5.3 4s4.9 4 5.3 4c1.5 0 .5-17.4-1.5-25.5-5.9-25.2-16.4-44.1-49.4-89.6l-3.3-4.5 3.7-.3c2-.1 4.8-.4 6.2-.6 1.4-.2 3.1-.4 3.8-.4 2.1-.2 1.3-1.5-2.6-3.9-5.3-3.4-12.8-13-16.6-21.4-1.9-4-6.2-15.2-9.6-24.8-15.5-43.8-26.7-58.2-51.4-66.1-8.8-2.9-17.9-4.7-27.1-5.3-15.6-1.2-18.4-1.7-17.9-3 .7-1.9-1.2-2.3-8.1-2-17.1.8-54.3 1.4-55.7.9-4.2-1.6-3-6.2 1.8-7.1 3.3-.6 5.1-2 4.1-3.1-.6-.5-24.9-6.8-30.2-7.7-1.6-.3-4.1-.8-5.5-1.1-1.4-.3-5.4-.8-9-1.1-3.6-.3-6.9-.6-7.5-.8-.5-.1-6.4.6-13 1.5zM347 362c3.9 1.1 5.4 2.9 4.4 5.5-1.1 2.7 2.4 6.3 9.1 9.6 10.9 5.4 18.5 6 53.5 4.8 12.3-.4 12.4-.4 10.4 4.5-.6 1.6-.4 1.8 1.2 1.2 10.5-4.1 19.5-5.8 29.9-5.9 6.1 0 12.4.2 14 .5 2.8.5 10.4 3.7 11.5 4.8.3.3 2.1 1.7 4.1 3.2 7.5 5.6 16.9 17.3 16.9 21.1 0 .7.4 1.7.9 2.2.5.6 3 8.4 5.6 17.5 4.7 16.6 5.5 19.2 8.2 24.3.8 1.6 1.3 3 1.1 3.1-.1.2-1.3.9-2.5 1.5-3.9 2-2.7 6.5 4.5 16.6 5.5 7.6 15.2 19.5 19.7 24 4.3 4.4 12.7 16.2 16.7 23.5 4.7 8.5 11.7 30.4 10.3 31.9-.3.2-3.3.8-6.7 1.3-3.4.4-6.4 1-6.6 1.3-.3.2 1.6 2.6 4.1 5.2 2.5 2.6 4.4 4.9 4.1 5.2-.2.3-2.1.4-4.1.3-4.1-.3-4-2-.4 14.3 3.8 17 1.6 30.8-6 38.5-6.7 6.7-24.9 12.7-39.4 12.9-4.9.1-10.1.3-11.5.5-6.6.7-6.4-.4 1.4-11.1 4.4-6 7-10.3 6.3-10.5-2.9-1.1-15.1.3-25.7 2.9-8.9 2.1-14.7 4.3-25.7 9.8-14.2 7.1-14.3 7.1-14.4 4.6-.1-4 .2-13.1.6-15 .1-.9.6-3.4 1-5.6 1.1-5.9 5.5-13.7 9.3-16.2 1.9-1.2 7.1-3.7 11.5-5.5 7.3-2.8 9.5-3.2 20.2-3.5 6.6-.2 12.6 0 13.4.6.9.6 1.4 3 1.5 7 0 3.4.4 6.1.8 6.1s2.3-1 4.3-2.1c10.2-6.1 8.6-24.4-3.2-36.6-2.4-2.4-4.3-4.6-4.3-4.8 0-.4 6.4.2 9.8 1 1.2.3 2.2.2 2.2-.1 0-.4-4.1-4.8-9-9.7-5-4.9-8.9-9.1-8.7-9.3.1-.2 8.5 2.8 18.6 6.7 10.1 3.8 18.7 6.9 19.2 6.7 1.2-.4-7.6-18.3-10.3-20.8-2.3-2.1-17.2-12.1-19.8-13.3-.8-.4-2.8-1.5-4.5-2.5-1.6-1.1-10.6-6.1-20-11.2-27.8-15.2-33.9-19.7-38.5-28.8-2.4-4.5-3.2-8.7-3.4-16.7-.1-5.6-1-5.2 9.4-3.9l5.5.6-4-2.9c-4.8-3.6-11-10.5-13.1-14.5-2.6-5-2.6-13.4 0-21.5.6-1.8.4-2.2-.9-1.7-3.4 1.3-4.8 6.5-5.1 18.3-.2 7-.8 11.9-1.6 12.8-1.7 2.1-2.3 17.3-.8 24.6 1.6 8.2 6.7 16.5 15.5 25.2 6.8 6.7 25.1 19.8 34.4 24.6 4.8 2.5 4.3 3.2-2.9 4.4-9.2 1.5-10.4 2-8.5 3.3 1.9 1.3 13.7 16.4 13.2 16.8-.2.3-3.1.6-6.3.8-3.3.2-6.5.4-7.3.5-1.7.1.2 1.7 12.7 10.1 5 3.4 9.2 6.6 9.2 7.1s-.3.8-.7.7c-.7-.2-5.1.3-16.3 1.7-30.9 3.8-61.6 22.7-72.3 44.5-2.9 5.8-3.2 7.3-3.2 15.5 0 11.8 2.2 16.4 12.5 26.6l7.7 7.5-7.6 5.1c-14.5 9.7-31.1 16.8-56.1 24.2-2 .6-.7 1.1 5.8 2.1 13.4 2.2 10 3.5-8.3 3.1-14.3-.3-16.1-1.4-46-27.1-21.8-18.7-29.3-24.7-38.4-30.6-7.7-4.9-27.2-15.2-32.6-17.1-15.1-5.5-23.2-8.3-24-8.3-.7 0-.9 1.5-.7 3.5.3 2.6 0 3.5-1 3.5-.8 0-1.7-.3-2.1-.6-.3-.3-2.9-1.7-5.7-3l-5-2.3-1.5 3.4c-.7 1.9-1.8 3.5-2.2 3.5-1.8 0-7.5-7.8-9.5-13-1.7-4.5-2.1-8-2.3-19.7-.4-22.2 2.5-32 15-50.3 7-10.3 11.2-14.9 18.5-20.2 3-2.2 7.9-6.5 10.7-9.6l5.3-5.7v3.7c0 4.6 1 5.3 3.6 2.5 7.2-7.9 11.9-19.3 23.8-58.2 13.3-43.8 17.5-53.6 27-62.9 8.9-8.6 28.4-16.4 48.6-19.3 4.3-.6 4.6-.9 3.2-2.6-.7-.8-.9-1.6-.6-2 .8-.8 15 .1 19.4 1.3z"/></svg>